<svg width="16" height="16" viewBox="0 0 16 16" fill="none" xmlns="http://www.w3.org/2000/svg">
<path d="M9.93564 13.5H5.93564C5.65939 13.5 5.43564 13.7238 5.43564 14C5.43564 14.2762 5.65939 14.5 5.93564 14.5H9.93564C10.2119 14.5 10.4356 14.2762 10.4356 14C10.4356 13.7238 10.2119 13.5 9.93564 13.5Z" fill="#475467"/>
<path d="M13.7375 10.9994C13.3663 10.3581 12.9238 9.14375 12.9238 7V6.55625C12.9231 3.78875 10.7013 1.52063 7.97001 1.5H7.93501C6.60126 1.50187 5.34751 2.02312 4.40626 2.9675C3.46439 3.91188 2.94689 5.16625 2.94876 6.5V7C2.94876 9.14375 2.50626 10.3581 2.13439 11C2.04689 11.1506 2.00001 11.3225 2.00001 11.4963C1.99876 11.7631 2.10189 12.015 2.29064 12.2044C2.47939 12.3938 2.72939 12.4987 2.99876 12.5H12.875C13.0494 12.5 13.2213 12.4531 13.3713 12.3663C13.6025 12.2325 13.7681 12.0169 13.8375 11.7594C13.9069 11.5012 13.8713 11.2319 13.7375 11V10.9994ZM3.00001 11.5006C3.43251 10.7531 3.94876 9.36562 3.94876 7V6.5C3.94751 5.4325 4.36126 4.42875 5.11439 3.67375C5.86751 2.91812 6.87001 2.50125 7.93751 2.5H7.96376C10.1475 2.51688 11.9238 4.33625 11.9238 6.55625V7C11.9238 9.36562 12.4394 10.7531 12.8738 11.5H3.00001V11.5006Z" fill="#475467"/>
</svg>
