<svg width="14" height="14" viewBox="0 0 14 14" fill="none" xmlns="http://www.w3.org/2000/svg">
<path fill-rule="evenodd" clip-rule="evenodd" d="M6.41554 0.180389C6.58681 0.0604373 6.79085 -0.00390625 6.99995 -0.00390625C7.20905 -0.00390625 7.41309 0.0604376 7.58436 0.180389C7.75331 0.298715 7.88232 0.465498 7.95439 0.658621L9.32715 4.11548L9.33125 4.12616C9.33252 4.12958 9.33475 4.13255 9.33768 4.13472C9.34061 4.13688 9.34411 4.13815 9.34774 4.13836L9.35084 4.13854L13.0383 4.37605C13.9956 4.43821 14.3227 5.63646 13.626 6.21559L13.6257 6.21591L10.8015 8.57149L10.7998 8.57285C10.7935 8.5781 10.7887 8.58504 10.7861 8.59287C10.7836 8.6005 10.7833 8.60866 10.7851 8.61647L10.7852 8.6171L11.697 12.2018C11.9178 13.0732 10.9768 13.858 10.1582 13.3417L10.1569 13.3409L7.00695 11.3409C7.00494 11.3396 7.00233 11.3387 6.99995 11.3387C6.99757 11.3387 6.99525 11.3394 6.99324 11.3407L6.99246 11.3412L4.06214 13.1968L4.06168 13.1971C3.16368 13.7681 2.1265 12.9001 2.37165 11.9392L3.21467 8.6171L3.21481 8.61653C3.21664 8.6087 3.21628 8.60052 3.21376 8.59287C3.21118 8.58504 3.20644 8.5781 3.20008 8.57285L3.19844 8.57149L0.374252 6.21591L0.373849 6.21558C-0.322795 5.63644 0.00407833 4.43822 0.961303 4.37607L4.65216 4.13835C4.6558 4.13814 4.65929 4.13688 4.66222 4.13472C4.66515 4.13255 4.66738 4.12958 4.66865 4.12616L4.67275 4.11548L6.04551 0.658621C6.11759 0.465499 6.24659 0.298715 6.41554 0.180389ZM7.54324 10.4968L10.6917 12.4959C10.6974 12.4994 10.7011 12.5008 10.7021 12.5011C10.7035 12.5008 10.7078 12.4997 10.7137 12.4952C10.7213 12.4894 10.7261 12.4823 10.7283 12.4764C10.7293 12.4738 10.73 12.4709 10.7302 12.4674C10.7304 12.464 10.7303 12.4577 10.7278 12.4479L9.81466 8.85793C9.7673 8.66705 9.77484 8.46667 9.83639 8.27989C9.89782 8.09347 10.0106 7.92816 10.1617 7.80293L10.1626 7.80218L12.9868 5.44662C12.9926 5.44176 12.9951 5.43828 12.9961 5.43661C12.9973 5.43477 12.9983 5.43263 12.9991 5.42966C13.0008 5.42292 13.0015 5.41129 12.9973 5.39786C12.9932 5.38446 12.987 5.37795 12.9852 5.37642L12.9842 5.37574C12.9842 5.37574 12.9812 5.37446 12.974 5.37398L9.28966 5.13667L9.28788 5.13657C9.09093 5.12476 8.90163 5.05602 8.74298 4.93866C8.58566 4.82228 8.46522 4.66308 8.396 4.48014L7.02275 1.02205C7.02096 1.01754 7.01923 1.013 7.01757 1.00843C7.01626 1.00482 7.01386 1.00169 7.01071 0.999486C7.00755 0.997278 7.0038 0.996094 6.99995 0.996094C6.9961 0.996094 6.99235 0.997278 6.9892 0.999486C6.98604 1.00169 6.98365 1.00482 6.98233 1.00843C6.98067 1.013 6.97894 1.01754 6.97715 1.02205L5.6039 4.48014C5.53469 4.66308 5.41425 4.82228 5.25692 4.93866C5.09828 5.05602 4.90898 5.12476 4.71203 5.13657L1.0261 5.37396C1.01882 5.37445 1.01576 5.37573 1.01576 5.37573L1.01471 5.37642C1.01289 5.37795 1.00674 5.38446 1.0026 5.39786C0.998437 5.41129 0.999059 5.42292 1.00084 5.42966C1.00162 5.43263 1.00261 5.43477 1.00377 5.43661C1.00483 5.43828 1.0073 5.44176 1.01315 5.44662L1.01396 5.44729L3.83732 7.80218L3.8383 7.80299C3.98937 7.92822 4.10209 8.0935 4.16351 8.27989C4.22507 8.46667 4.2326 8.66705 4.18524 8.85793L4.18459 8.8605L3.34063 12.1863C3.32257 12.257 3.34749 12.3118 3.39316 12.3465C3.41653 12.3643 3.44014 12.3719 3.4588 12.3732C3.47423 12.3743 3.4956 12.3721 3.52526 12.3532L6.45666 10.4968L6.45745 10.4963C6.61966 10.3934 6.80782 10.3387 6.99995 10.3387C7.19228 10.3387 7.38092 10.3937 7.54324 10.4968Z" fill="#475467"/>
</svg>
