<svg width="14" height="13" viewBox="0 0 14 13" fill="none" xmlns="http://www.w3.org/2000/svg">
<path fill-rule="evenodd" clip-rule="evenodd" d="M7 1.5C5.067 1.5 3.5 3.067 3.5 5C3.5 6.933 5.067 8.5 7 8.5C8.933 8.5 10.5 6.933 10.5 5C10.5 3.067 8.933 1.5 7 1.5ZM2.5 5C2.5 2.51472 4.51472 0.5 7 0.5C9.48528 0.5 11.5 2.51472 11.5 5C11.5 7.48528 9.48528 9.5 7 9.5C4.51472 9.5 2.5 7.48528 2.5 5Z" fill="#D0005E"/>
<path fill-rule="evenodd" clip-rule="evenodd" d="M7.00008 9.49939C5.85899 9.49939 4.73801 9.79978 3.74982 10.3704C2.76164 10.941 1.94107 11.7616 1.37062 12.7499C1.23257 12.9891 0.926782 13.071 0.687623 12.933C0.448464 12.7949 0.366499 12.4891 0.504548 12.25C1.16276 11.1097 2.10957 10.1627 3.24978 9.50437C4.39 8.846 5.68344 8.49939 7.00008 8.49939C8.31673 8.49939 9.61017 8.846 10.7504 9.50437C11.8906 10.1627 12.8374 11.1097 13.4956 12.25C13.6337 12.4891 13.5517 12.7949 13.3125 12.933C13.0734 13.071 12.7676 12.9891 12.6295 12.7499C12.0591 11.7616 11.2385 10.941 10.2503 10.3704C9.26216 9.79978 8.14117 9.49939 7.00008 9.49939Z" fill="#D0005E"/>
</svg>
